<mxfile host="app.diagrams.net" modified="2024-02-01T01:07:01.094Z" agent="Mozilla/5.0 (X11; CrOS x86_64 14541.0.0) AppleWebKit/537.36 (KHTML, like Gecko) Chrome/120.0.0.0 Safari/537.36" version="23.1.0" etag="D-_gCV4uFPUi0SIdiTzm" type="github">
  <diagram name="Page-1" id="tCvX-ic-LxciF5s783ty">
    <mxGraphModel>
      <root>
        <mxCell id="0" />
        <mxCell id="1" parent="0" />
      </root>
    </mxGraphModel>
  </diagram>
</mxfile>
